<?xml version="1.0" encoding="UTF-8"?>
<!-- Created with Inkscape (http://www.inkscape.org/) -->
<svg width="187.87" height="187.87" version="1.1" viewBox="0 0 200 200" xmlns="http://www.w3.org/2000/svg">
 <g transform="translate(-202.16 82.736)">
  <g transform="matrix(1.5379 0 0 1.5379 153.07 -194.67)" stroke-width=".254">
   <path d="m76.775 202.43-0.15418-0.40177v-17.23h-25.612l-0.80355-0.30835v-26.053l-0.80355-0.30835-7.9595-0.00144-9.525-0.33288v-40.56h18.714l0.16808-8.4235 0.16808-8.4235v-9.0611l0.127-0.11534 25.908-0.26566 0.37866-17.526 0.1202-0.3175 0.1202-0.3175h40.148l0.1112 0.127 0.13485 9.398 0.13486 9.398 25.4 0.254 0.254 25.908 18.034 0.254 0.13 40.767-18.164 8e-3 -0.63016 0.4002-0.0659 12.56-0.0659 12.56-25.627 0.1318-0.40026 0.63025-0.012 14.986-0.32034 2.667h-39.753l-0.15418-0.40178z" fill="#345da9"/>
   <path d="m76.775 202.43-0.15418-0.40177v-17.23h-25.612l-0.80355-0.30835v-26.053l-0.80355-0.30835-7.9595-0.00144-9.525-0.33288v-40.56h18.714l0.16808-8.4235 0.16808-8.4235v-9.0611l0.127-0.11534 25.908-0.26566 0.37866-17.526 0.1202-0.3175 0.1202-0.3175h40.148l0.1112 0.127 0.13485 9.398 0.13486 9.398 25.4 0.254 0.254 25.908 18.034 0.254 0.13 40.767-18.164 8e-3 -0.63016 0.4002-0.0659 12.56-0.0659 12.56-25.627 0.1318-0.40026 0.63025-0.012 14.986-0.32034 2.667h-39.753l-0.15418-0.40178zm58.079-31.5 0.15183-0.15183-0.1311-0.34166-0.13111-0.34167-1.2598 0.479h-78.991l0.31396 0.508h79.895zm0.63678-8.8017-4.1598-8.1915-30.192-59.329-0.60151 0.82262 0.84799 0.84987 36.519 71.88 1.2217 2.159h0.52431zm-79.304 3.81 0.26415-0.8255 41.493-71.678 0.17419-0.45393 0.17419-0.45393-0.57375 0.19632-42.487 73.406-0.25422 0.635h0.94605zm71.309-10.042-5.5357-10.868-23.368-45.829-0.254 0.0138-36.964 64.883-0.76385 1.3335-0.76386 1.3335h73.185l-5.5357-10.868zm-63.456 8.3137-0.16553-0.26784 33.649-59.027 0.4962-0.635h0.84257l30.337 59.426v0.77184h-64.994zm58.81-4.3216v-0.27141l-24.715-48.225-0.30446 8e-3 -27.686 48.297-0.08467 0.23199-0.08467 0.232h52.874zm-50.737-0.65881-0.3175-0.12812v-0.65021l25.605-44.646h1.0707l22.855 44.619v0.66591l-0.80355 0.30835-48.091-0.0401-0.3175-0.12811z" fill="#5f5c5d"/>
   <path d="m77.074 193.86 0.07264-8.98-0.69967-0.58067-25.862-0.1317-0.254-26.162-4.318-0.32997-14.097-0.1588-1.34e-4 -19.949-1.35e-4 -19.949 18.595 0.1452 0.70904-0.58845v-20.179l0.1656-2.7065 0.1656-2.7065h25.515l0.29154-0.35129 0.29154-0.35129-0.13988-17.84 40.132 1.18e-4v18.923l25.4 0.254 0.1316 25.795 0.67381 0.25618 0.67381 0.25619 17.447-0.1458-0.0651 20.142-0.0652 20.142-18.597-0.036-0.57491 0.69273-0.1318 24.846-25.654 0.254-0.17272 1.905-0.17271 1.905-6e-3 14.478-39.527 0.1304 0.07264-8.98zm57.78-22.925 0.15183-0.15183-0.1311-0.34166-0.13111-0.34167-1.2598 0.479h-78.991l0.31396 0.508h79.895zm0.63678-8.8017-4.1598-8.1915-30.192-59.329-0.60151 0.82262 0.84799 0.84987 36.519 71.88 1.2217 2.159h0.52431zm-79.304 3.81 0.26415-0.8255 41.493-71.678 0.17419-0.45393 0.17419-0.45393-0.57375 0.19632-42.487 73.406-0.25422 0.635h0.94605zm71.309-10.042-5.5357-10.868-23.368-45.829-0.254 0.0138-36.964 64.883-0.76385 1.3335-0.76386 1.3335h73.185l-5.5357-10.868zm-63.456 8.3137-0.16553-0.26784 33.649-59.027 0.4962-0.635h0.84257l30.337 59.426v0.77184h-64.994zm58.81-4.3216v-0.27141l-24.715-48.225-0.30446 8e-3 -27.686 48.297-0.08467 0.23199-0.08467 0.232h52.874zm-50.737-0.65881-0.3175-0.12812v-0.65021l25.605-44.646h1.0707l22.855 44.619v0.66591l-0.80355 0.30835-48.091-0.0401-0.3175-0.12811z" fill="#305292"/>
   <path d="m77.074 193.86 0.07264-8.98-0.69967-0.58067-25.862-0.1317-0.254-26.162-4.318-0.32997-14.097-0.1588-1.34e-4 -19.949-1.35e-4 -19.949 18.595 0.1452 0.70904-0.58845v-20.179l0.1656-2.7065 0.1656-2.7065h25.515l0.29154-0.35129 0.29154-0.35129-0.13988-17.84 40.132 1.18e-4v18.923l25.4 0.254 0.1316 25.795 0.67381 0.25618 0.67381 0.25619 17.447-0.1458-0.0651 20.142-0.0652 20.142-18.597-0.036-0.57491 0.69273-0.1318 24.846-25.654 0.254-0.17272 1.905-0.17271 1.905-6e-3 14.478-39.527 0.1304 0.07264-8.98zm58.108-23.218-0.16674-0.4445-36.335-71.289 0.16109-0.4233 0.16109-0.4233-0.51138 0.508-38.667 67.816-0.85701 0.5103 74.168 0.254 0.61495 1.1641 0.61495 1.1641-0.16248 0.42342-0.16248 0.42343h-79.488l-0.27017 0.43714 0.32486 0.32486h80.742zm-70.723-6.389-0.35004-0.22172 0.11845-0.2189 0.11845-0.21889 33.683-59.078 0.79014 0.1522 20.483 40.13 9.7694 19.189-0.762 0.48866h-63.5zm58.73-4.025 0.1173-0.1905-24.995-48.768h-0.64l-27.916 48.679 0.1451 0.23478 0.1451 0.23478h53.026zm-51.031-1.4118-0.12753-0.33236 25.468-44.42 0.22704-0.23604 0.75871 0.49004 22.611 44.142-0.13222 0.34455-0.13221 0.34455h-48.546zm67.549 11.559 0.12544-0.20296-38.495-75.64-0.24469-0.08156-0.24468-0.08156-0.43461 0.91139-0.43461 0.91139 0.26943-0.16652 0.26944-0.16652 0.70188 0.58251 37.709 74.137h0.65244zm-83.212-3.861-0.31725-0.508 0.54706-0.889 41.552-71.819 0.02993-0.41245 0.02994-0.41245h-0.7215l-42.857 74.061 0.30165 0.48808h1.7523zm43.112-69.342 0.39404-0.762h-0.254l-0.78809 1.524h0.254z" fill="#2c4575"/>
   <path d="m77.074 193.86 0.07264-8.98-0.69967-0.58067-25.862-0.1317-0.254-26.162-4.318-0.32997-14.097-0.1588-1.34e-4 -19.949-1.35e-4 -19.949 18.595 0.1452 0.70904-0.58845v-20.179l0.1656-2.7065 0.1656-2.7065h25.515l0.29154-0.35129 0.29154-0.35129-0.13988-17.84 40.132 1.18e-4v18.923l25.4 0.254 0.1316 25.795 0.67381 0.25618 0.67381 0.25619 17.447-0.1458-0.0651 20.142-0.0652 20.142-18.597-0.036-0.57491 0.69273-0.1318 24.846-25.654 0.254-0.17272 1.905-0.17271 1.905-6e-3 14.478-39.527 0.1304 0.07264-8.98zm58.345-22.77 0.15484-0.25054-33.868-66.428-2.7597-5.4267 0.64313-1.2692 0.64314-1.2692 0.48255-0.29824 0.20805 0.31308 0.20806 0.31308 37.664 73.931h0.9372l0.1604-0.83332-38.193-75.113-0.34586-0.37011-0.34585-0.37012-0.44165 0.48623-40.51 71.12-0.7863 0.889h-2.7153v-0.74812l42.223-72.961-0.82143-0.82143-0.36098 0.37193-0.36098 0.37193-41.903 72.452-0.85653 1.6563 0.34145 0.2164 0.34145 0.21641 77.841 8e-3 1.0263 2.0118v0.78066l-79.629 0.1286-0.16234 1.143h81.031zm-70.853-7.0984-0.14644-0.23696 33.664-58.968 0.65745 0.1324 29.988 58.788-0.16114 0.26074-0.16114 0.26073h-63.694zm58.733-3.8438 0.0766-0.39776-18.859-36.796-6.3643-12.374-0.88401 0.94365-27.178 47.498-0.63392 1.2076 0.34372 0.21848 0.34372 0.21849 53.079-0.1206zm-50.982-1.5707 0.01511-0.3175 25.244-43.942h0.68479l22.542 43.942 0.014 0.635h-48.514z" fill="#283553"/>
   <path d="m77.124 202.64-0.0046-0.1905-0.11774-18.034-26.289-0.1316-0.0078-25.776-0.48124-0.762-17.418-0.34863-0.889 0.25586-8.9e-5 -20.02-8.8e-5 -20.02h19.177l0.30874-15.24 0.03613-5.3975 0.03613-5.3975h25.878l0.11577-0.1905 0.11577-0.1905 0.17944-18.161 40.132 0.04006-0.508 0.21358 0.254 18.669 25.4 0.26588 0.127 0.11512v25.592l0.70957 0.5889 9.0434-0.0729 9.0434-0.0728-2.8e-4 40.229-0.508 0.31396 2.8e-4 -0.41098-18.669 0.254-0.1318 25.273-25.268 8e-3 -0.762 0.48116-0.254 17.799 0.41098-3.8e-4 -0.31396 0.508h-39.34l-0.0046-0.1905zm58.579-31.412 0.13829-0.36037-33.497-65.7-3.134-6.1759 1.1335-2.3331 0.53378 0.0054 37.338 73.463 0.79353 1.0183 1.1115-0.35277v-0.97524l-38.23-75.064-0.28445-0.48374-0.28444-0.48374-0.36846 0.14139-0.36847 0.14139-40.056 70.281-1.1859 1.905h-2.5336v-0.48551l42.227-72.97-0.98624-0.98624-0.7281 0.29348-41.91 72.441-1.1997 2.3082 0.45789 0.33481 0.45789 0.33482h77.634l1.0066 1.651 1e-3 0.31671 1e-3 0.3167-79.622 0.1286-0.08846 0.45933-0.08846 0.45934 0.14051 0.36616 0.14038 0.36617h81.312zm-71.02-7.3657v-0.10611l33.428-58.555 0.48109-0.1474 29.845 58.565v0.35049h-63.754zm58.989-3.7287-0.0657-0.40583-24.941-48.718-0.70441-0.74023-0.23776 0.24311-0.23776 0.24312-28.23 49.244v0.66927l54.483-0.1293zm-51.115-1.627v-0.12783l25.198-43.94 0.3288 2e-3 22.479 43.87v0.32408h-48.006v-0.12784z" fill="#25262e"/>
   <path d="m77.002 202.58-0.15698-0.254h0.53798v-17.678l-0.6096-0.6096h-25.793l-0.14046-25.883-0.30192-0.30176-0.30192-0.30177-17.684-0.36218-0.08467 0.21632-0.08467 0.21631h-0.46567v-40.132h0.508v0.508h18.44l0.6096-0.6096v-18.614l0.33276-6.9383h25.474l0.6096-0.6096v-17.678h39.364l0.1332 18.669 25.527 0.1317v25.916l0.65153 0.24771 0.65154 0.24772h17.197l0.12812-0.3175 0.12811-0.3175 0.0201 20.193 0.0202 20.193-18.886-0.1394-0.20541 0.32366-0.2054 0.32366-8e-3 25.019h-25.67l-0.18252 0.4445-0.18253 0.4445v17.906l-39.213 6.1e-4zm59.008-31.31 0.0865-0.44914-36.644-71.879 0.57073-1.0155 0.57073-1.0155 0.16769 0.19308 0.16768 0.19308 37.447 73.66 0.4728 0.47998 1.3996-0.49021 0.0805-0.56121 0.0805-0.56122-33.545-65.923-2.612-5.08-2.612-5.08h-1.162l-41.134 72.136-2.315 0.1562 0.30925-0.5861 0.30925-0.5861 41.422-71.593 0.03048-1.0207-1.3837-0.78771-0.36925 0.37858-0.36926 0.37858-42.776 73.914-0.26558 0.96496 0.93821 0.68604h77.787l0.42355 0.88821 0.42356 0.8882-79.62 0.1286-0.08244 0.71995-0.08244 0.71996 0.13826 0.36031 0.13826 0.36032 81.923-0.1286zm-70.81-7.7424 0.0083-0.1905 32.916-57.581 0.46814-0.0266 19.441 38.049 10.17 19.939h-63.013l0.0083-0.1905zm58.817-2.9574 0.13582-0.35395-25.611-49.965-0.48582-0.0732-0.48582-0.0733-28.569 49.811v1.0089h54.88zm-39.973-21.681 11.177-19.494 2.5391-4.445 0.32377 8e-3 14.478 28.307 7.7458 15.119h-47.44l11.177-19.494zm3.4164-65.786 9.9506-0.06947 20.231 0.13886-40.132 7.2e-5z" fill="#211d1e"/>
  </g>
 </g>
</svg>
